
      <svg data-logo="logo" xmlns="http://www.w3.org/2000/svg" viewBox="0 0 243 42">
        <g id="logogram" transform="translate(0, 1) rotate(0) "><path d="M13.0964 20.3536L17.6262 22.4473L17.046 27.6527L8.94876 36.8282C4.2486 33.8023 0.898178 28.8615 0 23.108L13.0964 20.3536Z" fill="#15E3FF"/><path d="M25.183 25.94L31.2414 36.3789C27.992 38.6605 24.0331 40 19.7612 40C18.3744 40 17.0206 39.8587 15.7133 39.59L17.046 27.6527L20.4765 23.7656L25.183 25.94Z" fill="#348DFC"/><path d="M39.1022 14.881C39.5332 16.5143 39.763 18.2294 39.763 19.9982C39.763 24.1145 38.5192 27.9403 36.3874 31.1207L25.184 25.9405L22.5551 21.4123L25.8574 17.6692L39.1022 14.881Z" fill="#FD4873"/><path d="M17.046 27.6524L17.0458 27.6527L17.1686 26.552L17.046 27.6524Z" fill="#FFC700"/><path d="M20.132 0C26.1505 0.109415 31.5194 2.877 35.1148 7.17842L25.8561 17.6694L20.9792 18.6959L18.519 14.4574L20.132 0Z" fill="#FFC700"/><path d="M18.519 14.4574L17.9745 19.3269L13.0991 20.353L0.514709 14.5347C2.09964 8.94044 6.05794 4.3436 11.2327 1.9007L18.519 14.4574Z" fill="#00E7B9"/></g>
        <g id="logotype" transform="translate(46, 1.5)"><path fill="#000000" d="M20.25 32L13.39 32L6.56 7.01L13 7.01L18.01 27.34L16.82 27.34L22.07 7.01L28.54 7.01L33.93 27.34L32.74 27.38L37.61 7.01L43.45 7.01L36.66 32L29.80 32L24.38 12.08L25.50 12.12L20.25 32ZM53.88 32.49L53.88 32.49Q50.70 32.49 48.35 31.27Q46.01 30.04 44.76 27.91Q43.52 25.77 43.52 23.00L43.52 23.00Q43.52 21.32 43.98 19.87Q44.43 18.42 45.30 17.27Q46.18 16.11 47.44 15.27Q48.70 14.43 50.31 13.97Q51.92 13.52 53.85 13.52L53.85 13.52Q56.09 13.52 57.96 14.13Q59.83 14.74 61.14 16.02Q62.46 17.30 63.16 19.36Q63.86 21.43 63.79 24.34L63.79 24.34L47.41 24.34L47.41 21.11L58.05 21.11Q57.87 20.13 57.52 19.49Q57.17 18.84 56.61 18.40Q56.05 17.96 55.35 17.77Q54.65 17.58 53.81 17.58L53.81 17.58Q52.90 17.58 52.17 17.82Q51.43 18.07 50.89 18.54Q50.35 19.02 49.98 19.68Q49.61 20.34 49.44 21.18Q49.26 22.02 49.26 23.00L49.26 23.00Q49.26 24.65 49.75 25.88Q50.24 27.10 51.29 27.77Q52.34 28.43 53.92 28.43L53.92 28.43Q55.28 28.43 56.23 28.01Q57.17 27.59 57.63 26.82L57.63 26.82L63.68 26.82Q63.37 28.29 62.23 29.59Q61.09 30.88 59.03 31.68Q56.96 32.49 53.88 32.49ZM79.33 32.49L79.33 32.49Q77.58 32.49 76.16 32.02Q74.74 31.55 73.73 30.74Q72.71 29.93 72.12 28.85L72.12 28.85L72.61 27.87L72.61 32L66.62 32L66.62 7.01L72.61 7.01L72.61 18.10L72.12 17.16Q72.71 16.04 73.73 15.23Q74.74 14.43 76.16 13.97Q77.58 13.52 79.33 13.52L79.33 13.52Q81.46 13.52 83.33 14.55Q85.21 15.58 86.36 17.68Q87.52 19.78 87.52 22.97L87.52 22.97Q87.52 24.89 87.06 26.42Q86.61 27.94 85.85 29.09Q85.10 30.25 84.05 31.00Q83.00 31.75 81.79 32.12Q80.59 32.49 79.33 32.49ZM77.02 28.11L77.02 28.11Q77.86 28.11 78.54 27.87Q79.22 27.63 79.76 27.17Q80.31 26.71 80.69 26.09Q81.08 25.45 81.23 24.67Q81.39 23.88 81.39 22.97L81.39 22.97Q81.39 21.50 80.88 20.34Q80.38 19.19 79.40 18.54Q78.42 17.89 77.02 17.89L77.02 17.89Q76.14 17.89 75.46 18.14Q74.78 18.38 74.23 18.84Q73.69 19.29 73.31 19.92Q72.92 20.55 72.73 21.32Q72.54 22.09 72.54 23.00L72.54 23.00Q72.54 24.51 73.08 25.65Q73.62 26.79 74.60 27.45Q75.58 28.11 77.02 28.11ZM102.39 32L95.71 32L88.04 14.01L94.55 14.01L99.91 28.29L98.68 28.25L104.07 14.01L109.99 14.01L102.39 32ZM116.81 32.49L116.81 32.49Q113.84 32.49 112.16 31.07Q110.48 29.66 110.48 27.27L110.48 27.27Q110.48 25.66 111.25 24.49Q112.02 23.32 113.59 22.55Q115.17 21.78 117.51 21.46L117.51 21.46L121.96 20.91Q122.73 20.77 123.11 20.40Q123.50 20.03 123.50 19.40L123.50 19.40L123.50 19.36Q123.50 18.73 123.15 18.30Q122.80 17.86 122.13 17.65Q121.47 17.44 120.49 17.44L120.49 17.44Q119.09 17.44 118.21 17.81Q117.34 18.17 117.16 19.09L117.16 19.09L111.25 19.09Q111.56 17.16 112.80 15.93Q114.05 14.71 116.04 14.11Q118.04 13.52 120.63 13.52L120.63 13.52Q123.57 13.52 125.54 14.27Q127.52 15.02 128.48 16.55Q129.45 18.07 129.45 20.41L129.45 20.41L129.45 32L123.81 32L123.81 27.38L124.41 28.04Q123.74 29.59 122.64 30.55Q121.54 31.51 120.07 32Q118.60 32.49 116.81 32.49ZM118.91 28.36L118.91 28.36Q119.96 28.36 120.82 27.99Q121.68 27.63 122.29 27.01Q122.90 26.40 123.20 25.63Q123.50 24.86 123.50 24.02L123.50 24.02L123.50 21.74L124.44 22.90Q124.02 23.32 123.41 23.53Q122.80 23.74 121.57 23.98L121.57 23.98L118.63 24.51Q117.58 24.75 117.04 25.24Q116.50 25.73 116.50 26.47L116.50 26.47Q116.50 27.38 117.16 27.87Q117.83 28.36 118.91 28.36ZM142.57 39.14L142.57 39.14Q139.70 39.14 137.58 38.44Q135.47 37.74 134.22 36.45Q132.98 35.15 132.66 33.37L132.66 33.37L138.65 33.37Q138.97 34.17 139.96 34.63Q140.96 35.08 142.61 35.08L142.61 35.08Q143.80 35.08 144.71 34.73Q145.62 34.38 146.14 33.59Q146.66 32.80 146.66 31.61L146.66 31.61L146.66 26.89L147.26 27.80Q146.66 28.92 145.70 29.73Q144.74 30.53 143.41 30.97Q142.08 31.41 140.37 31.41L140.37 31.41Q138.13 31.41 136.25 30.36Q134.38 29.30 133.24 27.31Q132.10 25.31 132.10 22.48L132.10 22.48Q132.10 20.73 132.53 19.31Q132.94 17.89 133.72 16.84Q134.49 15.79 135.52 15.04Q136.55 14.29 137.78 13.90Q139 13.52 140.37 13.52L140.37 13.52Q142.08 13.52 143.43 13.97Q144.78 14.43 145.72 15.22Q146.66 16.00 147.22 17.09L147.22 17.09L146.66 18L146.66 14.01L152.69 14.01L152.69 31.41Q152.69 33.54 151.86 34.98Q151.04 36.41 149.62 37.34Q148.21 38.27 146.38 38.70Q144.56 39.14 142.57 39.14ZM142.47 27.06L142.47 27.06Q143.24 27.06 143.92 26.87Q144.60 26.68 145.13 26.29Q145.65 25.91 146.02 25.35Q146.38 24.79 146.58 24.05Q146.77 23.32 146.77 22.48L146.77 22.48Q146.77 20.98 146.25 19.94Q145.72 18.91 144.76 18.37Q143.80 17.82 142.47 17.82L142.47 17.82Q141.69 17.82 141.01 18.02Q140.33 18.21 139.79 18.59Q139.25 18.98 138.88 19.54Q138.51 20.10 138.34 20.84Q138.16 21.57 138.16 22.48L138.16 22.48Q138.16 23.91 138.69 24.95Q139.21 25.98 140.17 26.52Q141.13 27.06 142.47 27.06ZM161.93 32.49L161.93 32.49Q158.95 32.49 157.27 31.07Q155.59 29.66 155.59 27.27L155.59 27.27Q155.59 25.66 156.36 24.49Q157.13 23.32 158.71 22.55Q160.28 21.78 162.63 21.46L162.63 21.46L167.07 20.91Q167.84 20.77 168.23 20.40Q168.61 20.03 168.61 19.40L168.61 19.40L168.61 19.36Q168.61 18.73 168.26 18.30Q167.91 17.86 167.25 17.65Q166.58 17.44 165.60 17.44L165.60 17.44Q164.20 17.44 163.33 17.81Q162.45 18.17 162.28 19.09L162.28 19.09L156.36 19.09Q156.68 17.16 157.92 15.93Q159.16 14.71 161.16 14.11Q163.15 13.52 165.74 13.52L165.74 13.52Q168.68 13.52 170.66 14.27Q172.64 15.02 173.60 16.55Q174.56 18.07 174.56 20.41L174.56 20.41L174.56 32L168.93 32L168.93 27.38L169.52 28.04Q168.86 29.59 167.75 30.55Q166.65 31.51 165.18 32Q163.71 32.49 161.93 32.49ZM164.03 28.36L164.03 28.36Q165.08 28.36 165.93 27.99Q166.79 27.63 167.40 27.01Q168.02 26.40 168.31 25.63Q168.61 24.86 168.61 24.02L168.61 24.02L168.61 21.74L169.56 22.90Q169.14 23.32 168.52 23.53Q167.91 23.74 166.69 23.98L166.69 23.98L163.75 24.51Q162.70 24.75 162.15 25.24Q161.61 25.73 161.61 26.47L161.61 26.47Q161.61 27.38 162.28 27.87Q162.94 28.36 164.03 28.36ZM186.57 32.49L186.57 32.49Q184.22 32.49 182.52 32.05Q180.83 31.61 179.65 30.83Q178.48 30.04 177.87 29.01Q177.26 27.98 177.15 26.71L177.15 26.71L183.17 26.71Q183.31 27.34 183.73 27.73Q184.15 28.11 184.90 28.31Q185.66 28.50 186.67 28.50L186.67 28.50Q187.69 28.50 188.37 28.31Q189.05 28.11 189.42 27.73Q189.79 27.34 189.79 26.82L189.79 26.82Q189.79 26.29 189.40 25.96Q189.02 25.63 188.25 25.45L188.25 25.45L183.66 24.61Q180.65 24.13 179.16 22.81Q177.68 21.50 177.68 19.36L177.68 19.36Q177.68 18.03 178.27 16.95Q178.87 15.86 180.00 15.11Q181.14 14.36 182.75 13.94Q184.36 13.52 186.32 13.52L186.32 13.52Q189.12 13.52 191.05 14.17Q192.97 14.81 194.02 16.02Q195.07 17.23 195.25 18.91L195.25 18.91L189.26 18.91Q189.19 18.45 188.82 18.16Q188.46 17.86 187.83 17.67Q187.20 17.47 186.25 17.47L186.25 17.47Q185.41 17.47 184.80 17.67Q184.19 17.86 183.85 18.21Q183.52 18.56 183.52 19.02L183.52 19.02Q183.52 19.61 183.99 19.94Q184.47 20.27 185.20 20.45L185.20 20.45L190.21 21.29Q191.64 21.50 192.90 22.08Q194.16 22.66 194.95 23.74Q195.74 24.82 195.74 26.50L195.74 26.50Q195.74 28.01 195.09 29.13Q194.44 30.25 193.22 31.00Q191.99 31.75 190.29 32.12Q188.60 32.49 186.57 32.49Z"/></g>
        
      </svg>
    